<svg xmlns="http://www.w3.org/2000/svg" xmlns:xlink="http://www.w3.org/1999/xlink" version="1.1" x="0px" y="0px" viewBox="0 0 100 125" style="enable-background:new 0 0 100 100;" xml:space="preserve"><g><path d="M58.1,12.8c1-1.5,2.3-3,3.8-4.4c1.1-1,1.2-2.8,0.1-3.9c-1-1.1-2.8-1.1-3.9-0.1c-2.7,2.6-4.8,5.3-6.3,8.1   c0,0-0.1,0-0.1,0c-0.5,0-1.1,0-1.6,0c-0.9-1.3-2-2.6-3.4-3.7C41,4.4,32.4,3.9,21.1,7.4c-0.7,0.2-1.3,0.7-1.6,1.4   c-0.3,0.6-0.4,1.4-0.2,2.1c1.2,3.7,2.5,6.9,4.1,9.6C14.1,27,9,36.9,9,48.9c0,4.4,0.7,8.9,2.1,13.2c0,0.1,0,0.2,0.1,0.3   c0.3,1,7.8,24,23,30.3c2.5,1.1,5.2,1.6,7.8,1.6c3.2,0,6.5-0.8,9.8-2.3c6,2.8,12,3.1,17.6,0.7c15.2-6.3,22.7-29.3,23-30.3   c0-0.1,0.1-0.2,0.1-0.3c1.4-4.3,2.1-8.8,2.1-13.2C94.5,29,80.1,15.1,58.1,12.8z M43.3,13.2c3.9,3,4.7,8.1,4.8,10.5   c-2,1.2-6.6,3.5-11.3,2.1c-4.6-1.4-8.4-6.1-11.3-13.8C33.5,9.8,39.5,10.2,43.3,13.2z M48.3,33.8c-3-0.5-4.8-1.6-5.7-2.3   c2-0.3,3.8-0.9,5.4-1.6C48,31.4,48.1,32.7,48.3,33.8z M87,60.7c0,0.1-0.1,0.2-0.1,0.3c-0.8,2.5-7.7,21.7-19.7,26.6   c-4.5,1.9-9.2,1.5-14.2-1.2c-0.8-0.4-1.8-0.4-2.5,0c-5,2.6-9.7,3-14.2,1.2c-12-5-18.9-24-19.7-26.6c0-0.1-0.1-0.2-0.1-0.3   c-1.3-3.8-1.9-7.8-1.9-11.8c0-10.3,4.2-18.5,12.1-23.9c2.5,3,5.4,5,8.6,6c0.7,0.2,1.4,0.3,2.1,0.5c-0.4,0.9-0.3,2,0.3,2.8   c0.2,0.2,4.4,5.4,14.2,5.4c9.8,0,14-5.1,14.2-5.4c0.9-1.2,0.7-2.9-0.4-3.8c-1.2-1-2.9-0.8-3.9,0.4c-0.1,0.1-2.3,2.6-7.7,3.2   c-0.3-1.9-0.7-4.9-0.3-8.5c0-0.1,0.1-0.2,0.1-0.3c0-0.1,0-0.3,0-0.6c0.3-2.1,0.8-4.3,1.7-6.5C71.6,19.2,89,27.6,89,48.9   C89,52.9,88.3,56.8,87,60.7z"/></g><text x="0" y="115" fill="#000000" font-size="5px" font-weight="bold" font-family="'Helvetica Neue', Helvetica, Arial-Unicode, Arial, Sans-serif">Created by Ale Em</text><text x="0" y="120" fill="#000000" font-size="5px" font-weight="bold" font-family="'Helvetica Neue', Helvetica, Arial-Unicode, Arial, Sans-serif">from the Noun Project</text></svg>